<svg version="1.1" id="Layer_1" xmlns="http://www.w3.org/2000/svg" x="0" y="0" viewBox="0 0 512 512" style="enable-background:new 0 0 512 512" xml:space="preserve"><style>.st0{fill:#d4e1f4}.st1{fill:#2e31ff}</style><path class="st0" d="M22 77h20v245.4H22V77zM22.2 353.1h20v79.8h-20v-79.8zM259 353.1h20v79.8h-20v-79.8zM182.1 175h20v147.4h-20V175z"/><path class="st1" d="M494 341.1H18.2c-4.4 0-8 3.6-8 8v87.8c0 4.4 3.6 8 8 8H494c4.4 0 8-3.6 8-8v-87.8c0-4.4-3.6-8-8-8zm-471.8 12H247v79.8H22.2v-79.8zM490 432.9H259v-79.8h231v79.8z"/><path class="st1" d="M152 368h-24c-3.3 0-6 2.7-6 6s2.7 6 6 6h24c3.3 0 6-2.7 6-6s-2.6-6-6-6zM367 380h24c3.3 0 6-2.7 6-6s-2.7-6-6-6h-24c-3.3 0-6 2.7-6 6s2.7 6 6 6zM18 334.4h114.6c4.4 0 8-3.6 8-8V73c0-4.4-3.6-8-8-8H18c-4.4 0-8 3.6-8 8v253.4c0 4.4 3.6 8 8 8zM22 77h106.6v245.4H22V77z"/><path class="st1" d="M107.3 178.9c-3.3 0-6 2.7-6 6v29.7c0 3.3 2.7 6 6 6s6-2.7 6-6v-29.7c0-3.3-2.7-6-6-6zM429 163H178c-4.4 0-8 3.6-8 8v155.4c0 4.4 3.6 8 8 8h251c4.4 0 8-3.6 8-8V171c0-4.4-3.6-7.9-8-8zm-4 159.4H182V175h243v147.4z"/></svg>