<svg version="1.1" id="Layer_1" xmlns="http://www.w3.org/2000/svg" x="0" y="0" viewBox="0 0 512 512" style="enable-background:new 0 0 512 512" xml:space="preserve"><style>.st1{fill:#d4e1f4}.st2{fill:#2e31ff}</style><g style="opacity:.1"><path class="st1" d="M22.3 92h20v46.4h-20V92zM22.3 33.6h20V80h-20V33.6zM345.1 89.3h20v49.1h-20V89.3zM345.1 33.6h20v43.8h-20V33.6zM184 358.3h20v132h-20v-132zM43.6 476.3v-104c0-7.7 6.3-14 14-14h-20c-7.7 0-14 6.3-14 14v104c0 7.7 6.3 14 14 14h20c-7.7 0-14-6.3-14-14zM345.1 358.3h20v132h-20v-132z"/></g><path class="st2" d="M477 346.3H37.6c-14.4 0-26 11.6-26 26v104c0 14.4 11.6 26 26 26H477c14.4 0 26-11.6 26-26v-104c0-14.4-11.7-26-26-26zm-143.9 12v132H184v-132h149.1zm-309.5 118v-104c0-7.7 6.3-14 14-14H172v132H37.6c-7.7 0-14-6.3-14-14zm467.4 0c0 7.7-6.3 14-14 14H345.1v-132H477c7.7 0 14 6.3 14 14v104zM18.3 150.4h475.4c4.4 0 8-3.6 8-8V29.6c0-4.4-3.6-8-8-8H18.3c-4.4 0-8 3.6-8 8v112.9c0 4.4 3.6 7.9 8 7.9zm4-58.4h144.6v46.4H22.3V92zm310.8 46.4H178.9V33.6h154.3v104.8h-.1zm12 0V89.3h144.6v49.1H345.1zm144.6-61.1H345.1V33.5h144.6v43.8zM166.9 33.6V80H22.3V33.6h144.6z"/><path class="st2" d="M143.9 370.3h-84c-3.3 0-6 2.7-6 6s2.7 6 6 6h84c3.3 0 6-2.7 6-6s-2.6-6-6-6zM214.2 382.3h84c3.3 0 6-2.7 6-6s-2.7-6-6-6h-84c-3.3 0-6 2.7-6 6s2.6 6 6 6zM462.6 370.3h-84c-3.3 0-6 2.7-6 6s2.7 6 6 6h84c3.3 0 6-2.7 6-6s-2.7-6-6-6zM318.4 240.5h-114c-3.3 0-6 2.7-6 6v9h-15.1v-4c0-3.3-2.7-6-6-6h-38c-8.8 0-16 7.2-16 16s7.2 16 16 16h38c3.3 0 6-2.7 6-6v-4h15.1V289c0 14.4 11.6 26 26 26h74c14.4 0 26-11.6 26-26v-42.5c0-3.3-2.6-6-6-6zm-147.1 25h-32c-2.2 0-4-1.8-4-4s1.8-4 4-4h32v8zM312.4 289c0 7.7-6.3 14-14 14h-74c-7.7 0-14-6.3-14-14v-36.5h102V289z"/><path class="st2" d="M226.5 293.2c3.3 0 6-2.7 6-6v-22c0-3.3-2.7-6-6-6s-6 2.7-6 6v22c0 3.4 2.7 6 6 6zM312.8 321.7c-1.6-2.9-5.2-4-8.1-2.4-1 .6-1.9 1.4-2.4 2.4l-3.5 6.4c-.3.6-.6 1.2-.8 1.8-.2-.6-.4-1.2-.8-1.8l-3.5-6.4c-1.6-2.9-5.2-4-8.1-2.4-1 .6-1.9 1.4-2.4 2.4l-3.5 6.4c-.3.6-.6 1.2-.8 1.8-.2-.6-.4-1.2-.8-1.8l-3.5-6.4c-1.6-2.9-5.2-4-8.1-2.4-1 .6-1.9 1.4-2.4 2.4l-3.5 6.4c-.3.6-.6 1.2-.8 1.8-.2-.6-.4-1.2-.8-1.8l-3.4-6.4c-1.6-2.9-5.2-4-8.1-2.4-1 .6-1.9 1.4-2.4 2.4l-3.4 6.4c-.3.6-.6 1.2-.8 1.8-.2-.6-.4-1.2-.8-1.8l-3.4-6.4c-1.6-2.9-5.2-4-8.1-2.4-1 .6-1.9 1.4-2.4 2.4l-3.5 6.4c-.3.6-.6 1.2-.8 1.8-.2-.6-.4-1.2-.8-1.8l-3.5-6.4c-1.6-2.9-5.2-4-8.1-2.4-1 .6-1.9 1.4-2.4 2.4l-3.4 6.4c-2.1 3.9-1.4 8.6 1.7 11.7 3.9 3.9 10.2 3.9 14 0 1.2-1.2 2-2.6 2.5-4.1 1.6 5.2 7.1 8.2 12.3 6.6 3.2-1 5.7-3.4 6.6-6.6 1.6 5.2 7.1 8.2 12.3 6.6 1.6-.5 3-1.3 4.2-2.5s2-2.6 2.5-4.1c1.6 5.2 7.1 8.2 12.3 6.6 1.6-.5 3-1.3 4.2-2.5s2-2.6 2.5-4.1c1.6 5.2 7.1 8.2 12.3 6.6 3.2-1 5.7-3.4 6.6-6.6 1.6 5.2 7.1 8.2 12.3 6.6 1.6-.5 3-1.3 4.2-2.5 3.1-3.1 3.8-7.9 1.7-11.7l-3.1-6.4zM289.1 230.3c0 3.3 2.7 6 6 6s6-2.7 6-6v-20c0-3.3-2.7-6-6-6s-6 2.7-6 6v20zM269.1 210.3v10c0 3.3 2.7 6 6 6s6-2.7 6-6v-10c0-3.3-2.7-6-6-6s-6 2.7-6 6zM249.1 210.3v20c0 3.3 2.7 6 6 6s6-2.7 6-6v-20c0-3.3-2.7-6-6-6s-6 2.7-6 6zM229.1 210.3v10c0 3.3 2.7 6 6 6s6-2.7 6-6v-10c0-3.3-2.7-6-6-6s-6 2.7-6 6z"/></svg>