<svg version="1.1" id="Layer_1" xmlns="http://www.w3.org/2000/svg" x="0" y="0" viewBox="0 0 512 512" style="enable-background:new 0 0 512 512" xml:space="preserve"><style>.st0{fill:#d4e1f4}.st1{fill:#2e31ff}</style><path class="st0" d="M135.6 292.6v-17.1h-20v17.1c0 18.8 15.2 34 34 34h20c-18.8 0-34-15.2-34-34zM171 203.6V56c0-18.8 15.2-34 34-34h-20c-18.8 0-34 15.2-34 34v147.6c0 18.8 15.2 34 34 34h20c-18.7 0-33.9-15.2-34-34z"/><path class="st1" d="M185 249.6h48.8v19.9c0 3.3 2.7 6 6 6s6-2.7 6-6v-19.9h22v19.9c0 3.3 2.7 6 6 6s6-2.7 6-6v-19.9h46.6c25.4 0 46-20.6 46-46V56c0-25.4-20.6-46-46-46H185c-25.4 0-46 20.6-46 46v147.6c.1 25.4 20.6 46 46 46zM151 56c0-18.8 15.2-34 34-34h65.8v53.2c0 3.3 2.7 6 6 6s6-2.7 6-6V22h63.6c18.8 0 34 15.2 34 34v147.6c0 18.8-15.2 34-34 34H274l12.1-34.8c1.1-3.1-.6-6.5-3.8-7.6-3.1-1-6.5.6-7.6 3.7l-13.5 38.7h-8.7L239 198.9c-1.1-3.1-4.5-4.8-7.7-3.6-3.1 1.1-4.7 4.5-3.7 7.6l12.1 34.8H185c-18.8 0-34-15.2-34-34V56zM68 166h7.8v79.4c0 18.7 13.3 35.7 32.3 41.5 3.2 1 6.5-.8 7.5-4s-.8-6.5-4-7.5c-14-4.3-23.8-16.6-23.8-30V166h8c4.4 0 8-3.6 8-8v-14.6c0-4.4-3.6-8-8-8H68c-4.4 0-8 3.6-8 8V158c0 4.4 3.6 8 8 8zm4-18.6h19.8v6.6H72v-6.6zM444 135.4h-27.8c-4.4 0-8 3.6-8 8V158c0 4.4 3.6 8 8 8h8v79.4c0 13.4-9.8 25.8-23.8 30-3.2 1-5 4.3-4 7.5s4.3 5 7.5 4c19-5.8 32.3-22.9 32.3-41.5V166h7.8c4.4 0 8-3.6 8-8v-14.6c0-4.4-3.6-8-8-8zm-4 18.6h-19.8v-6.6H440v6.6z"/><path class="st1" d="M361.9 338.6c25.4 0 46-20.6 46-46v-19.1c0-5.5-4.5-10-10-10H113.6c-5.5 0-10 4.5-10 10v19.1c0 25.4 20.6 46 46 46h84.3v25.8c-2.4 1.2-4 3.5-4.4 6.1l-11.2 68.9c-.4 2.3.3 4.6 1.8 6.4 1.1 1.3 2.7 2.3 4.4 2.6L196 466.8c-.9-.3-1.7-.5-2.6-.7-1-.2-1.9-.3-2.9-.3-9-.1-16.3 7.1-16.4 16.1 0 3.3 1 6.5 2.9 9.2 3.1 4.4 8.1 6.9 13.5 6.9 9 .1 16.3-7.1 16.4-16.1 0-2.4-.5-4.7-1.6-6.9l41.1-26.5h.5V471c-6.2 2.4-10.3 8.3-10.4 15 0 3.3 1 6.5 2.9 9.2 3.1 4.4 8.1 6.9 13.5 6.9 9 .1 16.3-7.1 16.4-16.1 0-6.7-4.2-12.6-10.4-15v-22.2h4.1l40.6 23.8c-4.1 5.5-4.2 13-.3 18.6 3.1 4.4 8.1 6.9 13.5 6.9 8.9.2 16.2-6.9 16.4-15.7.2-8-5.6-14.9-13.5-16.2-1-.2-1.9-.3-2.9-.3h-.7l-29.6-17.3c1.9-.3 3.7-1.2 5-2.7 1.5-1.8 2.2-4.1 1.8-6.4l-11.2-68.9c-.3-1.7-1.1-3.3-2.2-4.5v-27.4l82-.1zM252.8 490c-1.5 0-2.8-.7-3.7-1.9-.5-.7-.7-1.4-.7-2.2.1-2.2 1.9-4 4.2-4.1h.4c.2 0 .4 0 .6.1 2 .3 3.5 2 3.6 4-.1 2.3-2 4.2-4.4 4.1zM115.6 292.6v-17.1h280.3v17.1c0 18.8-15.2 34-34 34H149.6c-18.8 0-34-15.2-34-34zm74.8 193.5c-1.5 0-2.8-.7-3.7-1.9-.5-.7-.7-1.4-.7-2.2.1-2.3 2.1-4.2 4.4-4.1.3 0 .6 0 .8.1 2 .3 3.5 2 3.6 4-.1 2.4-2.1 4.2-4.4 4.1zm126.4 0c-1.5 0-2.8-.7-3.7-1.9-.5-.7-.7-1.4-.7-2.2.1-2.3 2.1-4.2 4.4-4.1.3 0 .6 0 .8.1 2 .3 3.5 2 3.6 4-.1 2.4-2.1 4.2-4.4 4.1zm-86-49.4 9.9-61.2h30l9.9 61.2h-49.8zm37-73.2h-22v-24.9h22v24.9z"/></svg>